<svg xmlns="http://www.w3.org/2000/svg" width="40" height="40" viewBox="0 0 40 40">
  <path id="icon-twitter" d="M37.778,0H2.222A2.229,2.229,0,0,0,0,2.222V37.778A2.229,2.229,0,0,0,2.222,40H37.778A2.229,2.229,0,0,0,40,37.778V2.222A2.229,2.229,0,0,0,37.778,0ZM29.889,14.889v.667A14.423,14.423,0,0,1,15.333,30.111a14.911,14.911,0,0,1-7.889-2.333c.444,0,.778.111,1.222.111A9.563,9.563,0,0,0,15,25.667a5.142,5.142,0,0,1-4.778-3.556,3.428,3.428,0,0,0,1,.111A5.577,5.577,0,0,0,12.556,22a5.122,5.122,0,0,1-4.111-5v-.111a5.209,5.209,0,0,0,2.333.667,5.057,5.057,0,0,1-2.222-4.222,5.161,5.161,0,0,1,.667-2.556,14.623,14.623,0,0,0,10.556,5.333,4.166,4.166,0,0,1-.111-1.222,5.17,5.17,0,0,1,5.111-5.111,5.4,5.4,0,0,1,3.778,1.667,10.208,10.208,0,0,0,3.222-1.222,5.269,5.269,0,0,1-2.222,2.889,14.921,14.921,0,0,0,3-.778A14.532,14.532,0,0,1,29.889,14.889Z" fill="#fff"/>
</svg>
