<svg id="icon-instagram" xmlns="http://www.w3.org/2000/svg" width="40" height="40" viewBox="0 0 40 40">
  <path id="パス_64" data-name="パス 64" d="M29.522,11.211a3.767,3.767,0,0,0-1-1.556,3.767,3.767,0,0,0-1.556-1,5.549,5.549,0,0,0-2.444-.444C23.078,8.1,22.744,8.1,19.189,8.1s-4,0-5.333.111a7.215,7.215,0,0,0-2.444.444,3.767,3.767,0,0,0-1.556,1,3.767,3.767,0,0,0-1,1.556,5.549,5.549,0,0,0-.444,2.444C8.3,15.1,8.3,15.433,8.3,18.989s0,4,.111,5.333a7.215,7.215,0,0,0,.444,2.444,3.767,3.767,0,0,0,1,1.556,3.767,3.767,0,0,0,1.556,1,5.549,5.549,0,0,0,2.444.444c1.444.111,1.778.111,5.333.111s4,0,5.333-.111a7.215,7.215,0,0,0,2.444-.444,4.353,4.353,0,0,0,2.556-2.556,5.549,5.549,0,0,0,.444-2.444c.111-1.444.111-1.778.111-5.333s0-4-.111-5.333A14.028,14.028,0,0,0,29.522,11.211ZM19.078,25.989A6.889,6.889,0,1,1,25.967,19.1,6.924,6.924,0,0,1,19.078,25.989Zm7.111-12.444a1.556,1.556,0,1,1,1.556-1.556A1.519,1.519,0,0,1,26.189,13.544Z" transform="translate(0.922 0.9)" fill="#fff"/>
  <path id="パス_65" data-name="パス 65" d="M37.778,0H2.222A2.229,2.229,0,0,0,0,2.222V37.778A2.229,2.229,0,0,0,2.222,40H37.778A2.229,2.229,0,0,0,40,37.778V2.222A2.229,2.229,0,0,0,37.778,0ZM33.222,25.444a10.853,10.853,0,0,1-.667,3.222A5.408,5.408,0,0,1,31,31a6.147,6.147,0,0,1-2.333,1.556,10.853,10.853,0,0,1-3.222.667c-1.333.111-1.778.111-5.444.111s-4.111,0-5.444-.111a10.853,10.853,0,0,1-3.222-.667,5.113,5.113,0,0,1-2.444-1.444,6.147,6.147,0,0,1-1.556-2.333,10.853,10.853,0,0,1-.667-3.222V20c0-3.667,0-4.111.111-5.444a10.853,10.853,0,0,1,.667-3.222A5.113,5.113,0,0,1,8.889,8.889a6.147,6.147,0,0,1,2.333-1.556,10.853,10.853,0,0,1,3.222-.667H20c3.667,0,4.111,0,5.444.111a10.853,10.853,0,0,1,3.222.667,5.113,5.113,0,0,1,2.444,1.444,6.147,6.147,0,0,1,1.556,2.333,10.853,10.853,0,0,1,.667,3.222V20C33.333,23.667,33.333,24.111,33.222,25.444Z" fill="#fff"/>
  <circle id="楕円形_8" data-name="楕円形 8" cx="4.444" cy="4.444" r="4.444" transform="translate(15.556 15.556)" fill="#fff"/>
</svg>
